PathFileType	4	(X/Y/Z)	C:/Users/beibeiliu/ov580/test_trc\sequence.35_training_dense_left.trc
DataRate	CameraRate	NumFrames	NumMarkers	Units	OrigDataRate	OrigDataStartFrame	OrigNumFrames
120	120	24	19	mm	120	145	169
Frame#	Time	ThumbCMC			ThumbMCP			ThumbIP			ThumbTip			IndexMCP			IndexPIP			IndexTip			MiddleMCP			MiddlePIP			MiddleTip			RingMCP			RingPIP			RingTip			PinkyMCP			PinkyPIP			PinkyTip			BackHand1			BackHand2			BackHand3	
		X0	Y0	Z0	X1	Y1	Z1	X2	Y2	Z2	X3	Y3	Z3	X4	Y4	Z4	X5	Y5	Z5	X6	Y6	Z6	X7	Y7	Z7	X8	Y8	Z8	X9	Y9	Z9	X10	Y10	Z10	X11	Y11	Z11	X12	Y12	Z12	X13	Y13	Z13	X14	Y14	Z14	X15	Y15	Z15	X16	Y16	Z16	X17	Y17	Z17	X18	Y18	Z18	
144	1.2	-226.016	56.9847	49.4551	-215.38	61.9051	22.3984	-211.118	61.4351	0.03813	-205.291	63.3205	-20.6058	-232.333	35.8425	-16.2143	-217.464	26.3407	-34.7716	-200.483	14.6693	-50.5424	-232.911	12.5201	-15.0321	-207.244	1.70485	-22.5225	-180.791	3.15293	-0.592035	-246.229	-0.973304	-10.5424	-239.747	-9.43557	-24.9614	-228.299	-20.5358	-45.9048	-256.283	-8.22299	13.924	-265.255	-18.2934	-2.01444	-275.024	-22.8815	-12.0658	-259.818	19.2913	33.5246	-264.118	22.4712	59.7181	-253.279	43.6182	38.8713	
145	1.20833	-206.229	51.5976	45.23	-194.652	49.8267	23.2046	-189.474	49.4257	-0.812209	-182.413	50.3006	-18.0429	-215.463	28.5842	-19.2339	-206.642	16.2767	-33.1601	-193.344	1.43824	-45.3225	-225.923	8.14777	-13.1155	-205.254	-11.1569	-18.9278	-178.874	-18.22	3.52577	-245.147	4.10757	-6.38332	-243.423	-11.1932	-26.417	-235.822	-23.1541	-46.0233	-263.427	-3.84436	13.2215	-270.499	-9.35018	2.31259	-284.079	-11.2684	-9.65952	-251.586	22.5195	34.3252	-255.501	29.7281	58.8471	-235.948	47.135	40.6354	
146	1.21667	-191.618	39.5243	46.9958	-178.217	37.4139	23.6082	-166.512	40.8615	3.94263	-163.389	38.2013	-14.7848	-200.731	21.1348	-18.9786	-189.923	9.69737	-33.3107	-178.085	-13.4331	-48.1526	-210.012	4.89145	-15.5835	-193.021	-19.8184	-18.4337	-173.334	-30.6193	3.49061	-233.596	-0.0864772	-11.5813	-232.567	-14.041	-31.2447	-229.424	-24.3363	-43.9447	-250.217	-4.16265	11.7093	-257.9	-5.09507	-0.795402	-272.82	-2.62579	-12.5746	-236.16	21.6074	32.586	-239.855	29.1173	55.0879	-221.815	43.272	38.9536	
147	1.225	-173.611	34.7085	45.0689	-157.527	33.1981	24.4433	-153.85	31.4489	2.52806	-141.788	33.9212	-14.6266	-181.361	19.7008	-19.3705	-174.206	3.11703	-34.7145	-164.464	-15.852	-46.6443	-195.188	-2.56217	-16.137	-178.242	-23.661	-20.2818	-161.124	-37.2616	1.91983	-218.748	-3.59728	-10.2354	-214.893	-14.3139	-31.5751	-214.928	-27.8249	-49.2447	-236.794	-5.3873	10.0096	-244.083	-5.89582	-5.64137	-258.088	-1.46132	-13.7278	-222.432	17.6376	28.2747	-221.278	27.8778	57.1676	-199.514	40.16	38.3422	
148	1.23333	-159.748	37.089	47.6504	-146.688	32.798	22.9037	-139.74	32.0207	3.47537	-126.886	32.548	-12.9143	-170.721	20.7153	-18.1506	-164.611	2.88754	-33.9563	-155.561	-19.051	-46.1998	-182.081	4.77986	-18.107	-167.641	-21.0379	-23.1132	-154.935	-40.371	-1.01466	-208.472	0.712694	-13.2379	-205.242	-8.08626	-32.6355	-201.909	-18.3704	-53.032	-223.889	1.62193	6.84357	-232.27	2.67006	-8.22335	-246.695	8.10075	-16.6296	-209.94	22.8601	26.5503	-208.663	34.2239	56.0242	-188.756	42.8311	36.287	
149	1.24167	-155.788	37.5201	47.2294	-137.754	32.6353	26.6952	-130.19	32.7162	1.51984	-121.629	31.9272	-15.6083	-162.884	22.0692	-21.5103	-159.867	6.38934	-33.0063	-147.614	-18.3005	-43.6193	-179.209	14.8718	-19.3923	-171.938	-10.9571	-32.2004	-154.744	-38.9558	-18.566	-202.107	14.8953	-15.622	-205.037	4.6018	-36.2597	-206.575	-3.63845	-52.4582	-218.743	13.1522	6.66455	-229.083	14.4196	-5.37454	-242.759	22.174	-18.0875	-205.964	32.0524	26.3599	-206.194	38.322	53.7989	-179.543	49.9673	36.768	
150	1.25	-155.272	37.079	44.4733	-138.207	29.0564	22.8832	-128.29	27.0322	6.46644	-118.161	24.0243	-11.0982	-162.16	26.8265	-19.0418	-153.706	7.21716	-35.0458	-153.161	-15.3713	-43.3254	-184.965	21.6579	-24.4223	-180.522	-0.763081	-42.1185	-172.219	-23.6675	-47.139	-203.195	26.4703	-18.6323	-209.056	19.1631	-38.04	-211.461	13.3807	-56.9455	-223.587	24.7975	6.4086	-232.225	27.9627	-8.82217	-245.001	38.6377	-18.2106	-202.12	39.475	29.3078	-202.503	43.9787	52.5583	-177.505	53.1379	37.161	
151	1.25833	-151.406	32.6516	43.5417	-142.759	19.8732	23.7859	-129.523	13.8413	2.63957	-125.586	6.66596	-13.4467	-161.729	27.995	-19.0707	-156.895	9.63414	-35.7806	-155.471	-13.2854	-47.9655	-188.239	30.2207	-23.0634	-187.547	18.591	-48.6526	-184.64	-1.08255	-68.7887	-208.219	32.0934	-18.5116	-211.883	29.3071	-38.4248	-216.237	28.2872	-54.7727	-223.869	29.8331	2.02998	-235.311	32.6012	-9.03191	-245.371	40.2796	-18.2788	-205.784	42.6977	25.0571	-204.79	45.9941	51.5834	-180.247	49.9714	33.6065	
152	1.26667	-152.581	24.5685	43.3572	-142.154	7.19773	28.2391	-132.967	-2.20689	7.4069	-129.176	-11.8047	-9.9784	-157.456	26.3878	-20.7746	-151.702	12.5498	-39.4839	-151.144	-2.10584	-55.0629	-186.994	33.9492	-24.7097	-185.472	30.431	-48.616	-189.063	23.3205	-72.2865	-204.992	32.9529	-14.9924	-211.056	32.7099	-35.4178	-216.893	34.1438	-58.4534	-226.995	25.8435	1.8915	-232.782	27.8126	-15.3895	-244.116	33.2296	-27.1175	-202.824	39.2887	27.9533	-199.876	45.078	51.9749	-177.794	46.32	37.0844	
153	1.275	-149.763	17.2846	44.509	-136.04	-3.3052	27.2866	-135.297	-13.9469	6.66861	-131.716	-26.1664	-7.84034	-154.888	28.3145	-17.3391	-144.005	20.7791	-42.658	-142.947	11.4623	-62.9217	-177.297	35.6046	-25.6183	-180.601	35.7199	-45.8775	-179.385	37.9142	-69.9516	-201.487	28.9612	-13.4091	-204.036	30.884	-38.8267	-204.555	30.6925	-55.9681	-217.132	19.2496	-2.9465	-228.833	17.3181	-18.9999	-236.94	21.4555	-30.2965	-198.568	34.8829	23.965	-197.35	39.2701	53.9185	-171.927	42.1152	39.4153	
154	1.28333	-140.847	12.1846	46.2885	-128.377	-11.6899	27.163	-127.324	-24.6193	5.34623	-133.864	-33.7205	-9.59795	-138.087	29.6074	-17.4479	-135.416	26.9136	-38.5009	-129.864	24.2961	-57.597	-168.189	34.7092	-21.0709	-165.123	38.3674	-42.629	-166.098	45.0207	-67.4946	-183.884	27.2978	-14.067	-190.928	24.078	-41.3141	-190.653	20.0171	-60.2093	-207.843	18.931	-1.21249	-213.296	18.4706	-21.2669	-223.003	18.8619	-31.5633	-184.203	34.718	27.6218	-186.657	36.762	55.6795	-158.42	37.4217	38.5383	
155	1.29167	-132.952	7.84908	51.6122	-128.809	-13.7881	27.0707	-125.906	-27.2643	7.88945	-130.868	-38.093	-13.298	-126.934	27.4201	-9.80573	-119.634	28.5153	-33.6018	-115.428	29.0818	-54.5088	-154.604	35.5383	-18.126	-152.053	38.293	-44.5271	-154.957	43.34	-64.4278	-172.178	26.6592	-15.5033	-177.814	19.3053	-38.9397	-174.79	4.90141	-58.1774	-196.109	24.0596	-5.2464	-203.821	22.4488	-19.5544	-210.618	26.8862	-33.0716	-172.587	36.812	29.4057	-174.398	39.1551	58.0291	-151.126	37.7235	44.2623	
156	1.3	-127.196	3.8884	49.891	-124.481	-15.7979	28.9643	-122.189	-29.1295	6.42274	-126.949	-40.3067	-11.1133	-122.925	25.8957	-12.5062	-115.976	25.7514	-31.984	-109.212	25.1006	-52.4301	-147.423	33.6273	-20.9142	-145.362	32.4758	-43.3921	-147.294	30.1633	-69.6211	-167.475	25.6431	-18.5003	-163.611	11.6999	-39.7322	-165.707	-7.70365	-53.5409	-184.427	26.9968	-1.47762	-190.586	27.6928	-18.4192	-201.268	34.3845	-32.0453	-165.544	36.2335	28.6443	-165.58	37.695	55.9449	-142.859	34.7069	41.3491	
157	1.30833	-121.082	0.851539	54.5653	-119.974	-19.375	33.6623	-118.112	-31.0418	8.43711	-124.948	-37.6787	-10.7944	-112.911	20.0827	-9.27208	-109.336	18.3056	-29.999	-101.737	17.6854	-53.1553	-140.799	26.1492	-18.4797	-137.168	16.8164	-45.7267	-143.693	0.399818	-69.8303	-161.672	24.6201	-16.6635	-158.992	11.5746	-38.3703	-162	-8.33277	-53.9077	-180.533	30.5333	-2.72662	-183.987	31.7241	-17.6727	-188.952	38.0893	-34.2499	-160.705	37.2219	27.5618	-161.692	38.8838	55.486	-132.341	31.4211	45.4766	
158	1.31667	-121.276	1.31996	51.6189	-114.844	-20.1773	30.4531	-116.359	-28.534	11.687	-117.91	-38.4684	-7.76016	-112.6	19.1279	-12.3118	-107.562	16.0063	-32.956	-103.213	14.9865	-53.3761	-134.657	19.6465	-23.8338	-136.294	6.79549	-43.0326	-145.8	-18.4706	-56.4811	-157.413	27.692	-19.7465	-155.777	18.586	-39.6133	-160.547	6.81836	-56.6183	-178.255	33.593	-2.49544	-183.713	35.4308	-14.2792	-188.621	45.8206	-31.5657	-156.454	35.7626	31.2173	-159.138	40.0032	55.8697	-129.612	31.988	43.8545	
159	1.325	-122.452	2.25868	53.9428	-114.827	-17.6059	29.1741	-113.733	-26.2816	7.23341	-115.74	-35.943	-10.6779	-112.925	18.6126	-9.70094	-108.787	16.759	-36.7753	-108.91	14.3882	-54.3332	-139.889	20.5098	-21.04	-144.124	-0.0941313	-43.1048	-151.428	-28.9539	-46.143	-160.247	30.5756	-16.5395	-156.494	25.0476	-39.8084	-159.749	16.2145	-59.8302	-176.26	36.5239	-1.23911	-180.463	40.8717	-15.8688	-182.912	53.1885	-25.7991	-158.321	39.7323	30.5982	-159.774	42.5863	53.7637	-133.991	34.2319	41.6526	
160	1.33333	-130.696	5.81314	53.8621	-122.339	-12.848	31.0217	-117.82	-24.1916	9.08245	-117.435	-33.526	-12.7461	-123.37	22.3681	-14.417	-118.558	17.2755	-35.1336	-116.201	11.9562	-59.2541	-144.951	20.8036	-23.9974	-150.239	0.698646	-42.6198	-162.014	-29.4582	-44.0451	-164.474	33.8577	-14.452	-167.731	31.5206	-42.2981	-167.849	26.2644	-58.6403	-184.253	39.3833	1.39211	-189.028	50.0442	-15.7288	-187.425	63.0206	-26.5973	-160.154	41.4573	26.5785	-162.24	42.2941	54.4997	-136.972	36.3566	44.0135	
161	1.34167	-136.717	7.94277	53.0719	-127.167	-13.2957	31.5359	-124.832	-21.2417	8.85904	-121.169	-31.221	-9.83012	-128.077	20.3469	-12.6857	-125.89	14.2517	-34.2445	-129.413	4.75263	-59.4511	-153.112	26.0421	-20.1778	-157.947	9.58593	-44.5608	-167.029	-17.0248	-54.4393	-172.173	38.2191	-16.8523	-169.977	34.4229	-38.1138	-173.796	32.8565	-60.9356	-189.284	41.7484	3.24938	-190.765	49.9669	-12.6523	-195.372	65.0508	-21.1824	-168.601	43.2913	26.8124	-172.462	46.3704	52.1759	-146.907	38.9443	41.2773	
162	1.35	-141.158	9.05622	51.7406	-132.597	-11.9052	30.6719	-128.025	-23.2096	13.2155	-125.888	-30.528	-4.81808	-132.23	18.2583	-13.9325	-136.647	6.42182	-39.546	-140.869	-9.37849	-57.0711	-154.408	30.218	-23.5444	-154.359	16.9418	-48.5505	-161.032	-0.186182	-66.5091	-171.796	40.3727	-18.171	-173.934	40.7563	-37.093	-174.212	42.1424	-56.8597	-191.785	47.5515	1.43201	-196.108	55.537	-11.2417	-196.075	71.6948	-22.811	-172.119	45.2739	29.2027	-173.296	48.0238	52.3218	-145.947	37.604	44.5989	
163	1.35833	-141.165	4.95533	52.2241	-136.075	-13.8677	35.4076	-129.318	-26.2765	11.0636	-127.254	-36.1602	-2.01491	-136.215	10.6962	-13.6855	-142.137	-4.90556	-35.5878	-150.112	-22.9053	-46.6181	-152.525	28.9286	-21.7337	-155.148	23.9175	-44.0953	-154.387	13.7565	-68.0132	-172.558	40.6385	-12.4198	-169.838	42.9216	-32.8636	-167.058	46.3744	-55.2342	-189.772	44.2892	1.83816	-192.423	54.3	-12.0028	-194.674	66.4059	-21.4842	-172.13	45.3706	30.7128	-171.189	45.1264	56.1546	-147.289	33.7353	46.4123	
164	1.36667	-145.649	-0.338316	52.0583	-139.446	-20.5604	36.0351	-135.427	-30.5205	13.5282	-128.484	-43.2652	-0.352487	-139.107	0.512066	-14.446	-145.09	-16.8909	-31.99	-157.726	-34.6988	-39.205	-153.92	22.5963	-18.8152	-155.759	19.0331	-44.4917	-156.157	15.5781	-70.0977	-174.36	34.3896	-12.8848	-174.656	39.531	-32.6438	-169.514	41.422	-50.567	-195.45	37.785	3.01932	-194.589	47.3875	-15.6544	-194.763	60.6982	-27.9766	-176.308	36.9953	30.6479	-178.189	41.0847	57.1744	-150.11	29.188	42.5919	
165	1.375	-147.047	-5.96068	52.6223	-143.027	-24.5307	35.2896	-136.973	-36.9355	13.5864	-132.482	-48.0857	-1.21559	-142.554	-2.2134	-10.7997	-152.243	-21.6319	-31.7757	-163.323	-40.8868	-38.8324	-161.615	18.6229	-19.8613	-159.052	15.5145	-45.3166	-155.024	13.5131	-67.4066	-176.447	27.057	-13.0734	-176.426	32.7483	-34.2941	-173.916	36.3969	-50.0436	-198.783	29.8812	-1.24217	-205.873	35.8768	-13.9369	-205.407	43.3624	-30.3803	-181.415	33.4815	31.1068	-179.588	34.9815	54.545	-157.532	26.3738	43.5573	
166	1.38333	-148.214	-10.1113	54.1313	-141.469	-30.2508	37.334	-133.567	-42.2165	16.4213	-134.726	-50.0179	-0.737534	-145.643	-3.46121	-9.29311	-150.272	-22.4766	-31.5451	-155.827	-46.4969	-41.5169	-163.167	16.3903	-20.5697	-161.251	13.9865	-42.8891	-158.988	15.3028	-66.4668	-186.441	23.1514	-10.4433	-182.077	24.705	-31.2301	-183.704	30.0835	-49.4357	-208.617	19.7523	-3.44814	-209.597	19.8957	-21.3386	-215.783	26.3317	-34.3906	-187.35	27.8169	32.491	-184.695	27.5315	57.6042	-158.287	19.1403	43.8092	
167	1.39167	-148.314	-7.50661	58.1982	-140.083	-27.3851	35.3184	-132.247	-39.7866	20.3387	-129.728	-51.0487	0.590455	-143.586	0.694926	-12.8736	-146.178	-14.7423	-33.2168	-148.781	-34.5633	-46.6019	-166.696	18.599	-18.1959	-163.219	17.6412	-39.0826	-162.738	21.2575	-64.8359	-185.105	19.4394	-8.86033	-185.701	23.0954	-32.1055	-185.831	27.3188	-51.8917	-206.688	13.5023	-2.3952	-214.258	9.30051	-18.9689	-219.811	10.8702	-35.6115	-188.39	26.9958	30.8264	-188.857	26.3301	57.9513	-160.528	20.7487	43.8766	
